<svg width="1440" height="1024" viewBox="0 0 1440 1024" fill="none" xmlns="http://www.w3.org/2000/svg">
<path d="M-1 512.5V0H826C698.4 0 650.5 31 636 81C610 185.5 494.5 150.684 380.5 165C294.5 175.8 324.5 296 324.5 356.5C324.5 515.472 84.6667 527.833 -1 512.5Z" fill="white" fill-opacity="0.1"/>
<path d="M224 848.5C148.8 742.5 43 744.333 -0.5 758.5V1024H547C365.8 1024 256.167 907 224 848.5Z" fill="white" fill-opacity="0.1"/>
<path d="M953.5 341C827.9 187 908.328 55.3333 970.995 0H1440.49V733.5C1311.29 669.9 1302.99 557.333 1314.99 509C1351.79 358.2 1243.66 361.167 1184.99 381.5C1036.5 426.5 999.5 386.5 953.5 341Z" fill="white" fill-opacity="0.1"/>
<path fill-rule="evenodd" clip-rule="evenodd" d="M1440 924.737C1427.37 914.684 1414.97 904.486 1402.79 894.462C1345.86 847.623 1293.55 804.586 1243 797.815C1184 789.913 1104.5 805.815 1094 885.315C1094.8 925.715 1072.67 947.149 1061.5 952.815C1035.5 981.615 964.333 968.815 932 958.815C848.4 935.615 778.5 992.482 754 1023.82H1440V924.737Z" fill="white" fill-opacity="0.1"/>
</svg>
